<svg xmlns="http://www.w3.org/2000/svg" id="Layer_2" viewBox="0 0 13.98 16.12"><defs><style>.cls-1{fill:#fd16b7;}</style></defs><g id="Layer_1-2"><g><path class="cls-1" d="M5.96,5.13c-.14,.47-.84,.27-.7-.21,.2-.69,.27-1.39,.23-2.1-.04-.57-.13-1.28-.48-1.74C4.23,.04,2.85,1.79,2.39,2.4,1.23,3.92,.4,6.13,.84,8.1c.1,.43,.26,.85,.51,1.21,.24,.33,.55,.56,.89,.77,.77,.48,1.59,.86,2.33,1.39,.28,.2,.6,.43,.78,.74,.03,.05,.05,.1,.07,.16,0,0-.04-.1-.02-.04,.02,.05,.04,.1,.06,.16,.02,.05,.04,.1,.05,.14,.1,.32,.09,.66-.04,.97-.19,.45-.57,.77-.93,1.06-.75,.59-1.61,1.02-2.45,1.44-.42,.21-.79-.46-.37-.67,.9-.44,1.9-.92,2.65-1.6,.1-.09,.19-.18,.28-.28l.05-.06,.02-.03s.05-.09,.08-.13c.01-.02,.02-.04,.03-.06,0-.03,.02-.07,.03-.1v-.02h0s0-.09,0-.12h0v-.02s-.01-.05-.02-.08c-.01-.06-.03-.11-.05-.16-.01-.03-.02-.06-.03-.09,0-.03,0-.02,0,0,0-.02-.01-.04-.02-.05,0,0-.01,0-.03-.03,.02,.02,.02,.01-.02-.02-.06-.05-.11-.12-.17-.17-.65-.6-1.51-.97-2.26-1.4-.39-.22-.78-.46-1.11-.77-.34-.33-.6-.74-.79-1.19C-.03,8.07-.07,7.01,.08,6c.16-1.1,.57-2.17,1.11-3.12C1.73,1.93,2.48,.95,3.38,.36c.49-.32,1.09-.49,1.63-.23,.47,.22,.75,.7,.92,1.19,.42,1.2,.37,2.6,.02,3.81Z"></path><path d="M10.02,13.04c-.16,.75-.56,1.46-1.18,1.93-.59,.45-1.49,.67-2.15,.22-.78-.53-.8-1.54-.68-2.38,.13-.88,.38-1.74,.72-2.56,.18-.44,.4-.85,.63-1.26,.01-.03,.03-.06,.04-.08,.02-.05,.04-.11,.05-.17-.01-.05-.04-.1-.07-.14-.01,0-.02-.02-.04-.03,0,0-.02-.02-.03-.03h0s-.02-.02-.03-.03c-.13-.09-.24-.2-.34-.34-.26-.39-.3-.89-.22-1.34,.07-.46,.28-.89,.58-1.25,.28-.35,.69-.69,1.15-.75,.41-.05,.79,.16,.97,.53,.2,.41,.14,.86-.03,1.26-.21,.51-.51,.97-.83,1.42h0c-.04,.07-.1,.15-.13,.22-.03,.09-.03,.17,0,.27,.01,.03,.02,.05,.04,.08,1.14,1.17,1.9,2.76,1.53,4.42Zm-1.48-3.63s-.2-.25-.31-.32c-.1-.06-.23-.08-.33-.01-.02,.03-.05,.06-.07,.09h0c-.07,.13-.14,.25-.21,.38-.01,.02-.02,.04-.03,.07-.32,.61-.58,1.25-.77,1.91-.13,.44-.23,.9-.31,1.35-.07,.45-.11,.92,.05,1.35,.13,.34,.39,.61,.75,.69,.35,.08,.74-.04,1.04-.22,.66-.38,1.06-1.11,1.21-1.85,.26-1.27-.24-2.47-1.02-3.45Zm-.78-1.23s.08-.03,.12-.05c.03-.02,.06-.05,.09-.08,.04-.06,.08-.12,.12-.17,.26-.38,.53-.77,.74-1.18,.17-.33,.35-.77,.15-1.13-.2-.38-.6-.27-.89-.06-.32,.23-.58,.57-.74,.93-.14,.34-.21,.73-.13,1.09,.05,.25,.25,.66,.54,.65Z"></path><path d="M10.96,14.81c0,.06,0,.12,.06,.15,.77,0,1.54,.01,2.31,0,.32,0,.31,.49,0,.49-.99,0-1.98-.01-2.97,0-.18,0-.31-.21-.21-.37,.55-.88,1.05-1.8,1.49-2.74,.39-.83,.74-1.69,1.04-2.56,.3-.87,.61-1.78,.77-2.69,.07-.42,.07-.87-.17-1.24-.19-.3-.52-.47-.87-.37-.21,.06-.89,.38-.99,1.27-.01,.06-.02,.13-.02,.2,0,.15,0,.37,.09,.52,.03,.07,.07,.14,.04,.22-.09,.07-.21,.09-.31-.02-.35-.39-.32-.96-.14-1.42,.2-.51,.56-.99,1.08-1.2,.43-.17,.9-.08,1.25,.21,.35,.3,.53,.75,.56,1.2,.04,.55-.12,1.1-.26,1.62-.14,.51-.29,1.02-.46,1.52-.57,1.71-1.31,3.35-2.2,4.91h0c-.04,.1-.09,.19-.1,.29Z"></path></g></g></svg>